<?xml version="1.0" standalone="no"?><!DOCTYPE svg PUBLIC "-//W3C//DTD SVG 1.1//EN" "http://www.w3.org/Graphics/SVG/1.1/DTD/svg11.dtd"><svg t="1638535187878" class="icon" viewBox="0 0 1024 1024" version="1.1" xmlns="http://www.w3.org/2000/svg" p-id="4577" xmlns:xlink="http://www.w3.org/1999/xlink" width="200" height="200"><defs><style type="text/css"></style></defs><path d="M512 512m-512 0a512 512 0 1 0 1024 0 512 512 0 1 0-1024 0Z" fill="#FDEBED" p-id="4578"></path><path d="M512 742.4c-126.72 0-230.4-103.68-230.4-230.4s103.68-230.4 230.4-230.4 230.4 103.68 230.4 230.4-103.68 230.4-230.4 230.4z m48.64-186.88c-5.12-5.12-12.8-5.12-17.92 0l-15.36 15.36V422.4c0-6.4-5.12-12.8-12.8-12.8-6.4 0-12.8 5.12-12.8 12.8v147.2L486.4 552.96c-5.12-5.12-12.8-5.12-17.92 0-5.12 5.12-5.12 14.08 0 19.2l37.12 37.12c2.56 2.56 6.4 3.84 10.24 3.84 3.84 0 7.68-1.28 10.24-3.84l35.84-35.84c3.84-5.12 3.84-12.8-1.28-17.92z" fill="#EC3A4E" p-id="4579"></path></svg>