<?xml version="1.0" standalone="no"?><!DOCTYPE svg PUBLIC "-//W3C//DTD SVG 1.1//EN" "http://www.w3.org/Graphics/SVG/1.1/DTD/svg11.dtd"><svg t="1646358474729" class="icon" viewBox="0 0 1024 1024" version="1.1" xmlns="http://www.w3.org/2000/svg" p-id="4284" xmlns:xlink="http://www.w3.org/1999/xlink" width="100%" height="100%"><defs><style type="text/css"></style></defs><path d="M251.733333 917.333333h-128c-12.8 0-21.333333-8.533333-21.333333-21.333333V341.333333c0-12.8 8.533333-21.333333 21.333333-21.333333h128c12.8 0 21.333333 8.533333 21.333334 21.333333v554.666667c0 12.8-8.533333 21.333333-21.333334 21.333333zM891.733333 917.333333h-128c-12.8 0-21.333333-8.533333-21.333333-21.333333V341.333333c0-12.8 8.533333-21.333333 21.333333-21.333333h128c12.8 0 21.333333 8.533333 21.333334 21.333333v554.666667c0 12.8-8.533333 21.333333-21.333334 21.333333z" fill="#FFC53D" p-id="4285"></path><path d="M573.866667 597.333333h-132.266667c-10.666667 0-19.2-8.533333-19.2-19.2V125.866667c0-10.666667 8.533333-19.2 19.2-19.2h132.266667c10.666667 0 19.2 8.533333 19.2 19.2v452.266666c0 10.666667-8.533333 19.2-19.2 19.2z" fill="#1890FF" p-id="4286"></path><path d="M524.8 789.333333l140.8-179.2a21.333333 21.333333 0 0 0-17.066667-34.133333H366.933333c-17.066667 0-27.733333 21.333333-17.066666 34.133333L490.666667 789.333333c8.533333 10.666667 25.6 10.666667 34.133333 0z" fill="#1890FF" p-id="4287"></path></svg>